<?xml version="1.0" encoding="utf-8"?>
<!-- Generator: Adobe Illustrator 16.0.0, SVG Export Plug-In . SVG Version: 6.00 Build 0)  -->
<!DOCTYPE svg PUBLIC "-//W3C//DTD SVG 1.1//EN" "http://www.w3.org/Graphics/SVG/1.1/DTD/svg11.dtd">
<svg version="1.1" id="jquery_1_" xmlns="http://www.w3.org/2000/svg" xmlns:xlink="http://www.w3.org/1999/xlink" x="0px" y="0px"
	 width="2000px" height="2000px" viewBox="0 0 2000 2000" enable-background="new 0 0 2000 2000" xml:space="preserve">
<g id="_x31_">
	<g>
		<rect fill-rule="evenodd" clip-rule="evenodd" fill="#0769AD" width="2000" height="2000"/>
	</g>
</g>
<g id="_x30_">
	<g>
		<path fill-rule="evenodd" clip-rule="evenodd" fill="#FFFFFF" d="M1201.541,957.89l-26.47,36.66l-2.396-9.589h-17.38
			c0,0,1.726,8.726,2.997,13.186c1.258,4.404,3.5,8.792,3.595,13.185c0.109,5.027-2.521,14.469-2.521,14.469l16.904-0.085
			c0,0,1.822-9.057,3.596-13.186c0.702-1.642,2.086-2.967,2.997-4.195c2.805-3.794,37.154-50.343,37.154-50.343L1201.541,957.89z
			 M894.012,980.766h16.779c1.062-4.53,2.068-9.728,3.075-14.313c-5.896,0-10.89-0.071-16.259-0.071
			C896.307,970.751,895.312,975.744,894.012,980.766z M886.82,1012.529c-2.474,11.639-2.798,23.722-15.58,22.175
			c-1.223,4.496-2.775,10.52-4.148,15.535c5.244,0.108,10.068,0.51,14.336,0.048c2.624-0.286,7.364-1.42,8.389-2.397
			c0.414-0.395,0.701-0.21,1.199-0.6c5.562-4.345,6.934-10.35,8.989-18.579c3.283-13.149,7.473-32.039,9.588-43.75h-16.181
			C892.592,987.657,888.253,1005.805,886.82,1012.529z M1166.556,967.706c-3.715-2.235-12.548-1.27-20.105-1.27h-11.704
			c-7.328,0-11.669-0.486-12.41,2.343c-2.289,8.738-11.985,56.936-11.985,56.936h15.58l10.188-44.35h8.39
			c9.709,0,27.55-0.264,27.55-0.264S1169.965,969.763,1166.556,967.706z M987.499,972.975c-0.923-6.701-5.292-13.981-10.087-17.033
			c-0.196-0.12-1.055-0.803-1.3-0.947c-3.548-2.056-9.229-3.788-13.185-4.194c-20.393-2.092-32.558,6.97-39.551,19.177
			c-2.752,4.796-4.572,10.033-5.993,15.584c-1.57,6.148-2.697,13.604-1.798,20.377c0.539,4.057,2.77,9.823,5.993,13.186
			c7.939,8.275,23.509,7.191,40.151,7.191c5.1,0,17.33-0.103,21.021-0.197c1.193-0.037,4.616-13.965,4.311-14.414
			c-0.293-0.348-4.369,0.138-9.02-0.282C982.603,999.375,989.225,985.523,987.499,972.975z M966.523,995.148
			c-1.51,5.354-2.996,10.766-4.793,15.584c-12.112-0.073-23.361,1.582-26.969-5.994c-2.037-4.286-1.119-10.087,0-15.581
			c1.505-7.402,2.943-12.779,7.192-17.382c3.284-3.554,11.548-7.911,20.376-4.794c2.93,1.037,7.473,5.969,7.79,11.386
			C970.413,983.433,968.105,989.527,966.523,995.148z M1108.701,977.817c-0.49-1.763-0.922-4.178-1.797-5.395
			c-3.265-4.555-9.954-6.137-14.383-6.593c-11.764-1.204-21.557,1.941-26.967,5.995c-1.637,1.221-2.997,2.204-4.195,3.595
			c-0.433,0.503-0.899,1.066-1.3,1.647c-0.348,0.491-0.763,0.827-1.098,1.349c-0.498,0.755-1.024,2.183-1.647,3.446
			c-0.498,1.014-0.972,2.206-1.349,3.146c-3.249,8.115-6.562,23.259-3.596,31.164c0.438,1.17,1.414,2.649,1.749,3.1
			c0.419,0.563,0.804,1.217,1.247,1.695c1.624,1.75,4.028,2.985,6.593,3.596c12.986,3.1,38.951,1.797,38.951,1.797l3.183-14.095
			c0,0-18.373,0.828-27.152-0.287c-1.313-0.167-4.968-0.354-6.844-1.996c-1.63-1.426-3.554-4.801-2.146-6.993
			c1.002-1.565,5.027-1.097,8.391-1.199c10.815-0.33,30.563,0,30.563,0S1110.686,984.974,1108.701,977.817L1108.701,977.817z
			 M1094.02,989.306l-23.222-0.149c0,0-0.263-10.033,13.274-9.607c4.795,0.149,6.478,0.804,8.3,3.614
			C1094.506,986.459,1094.02,989.306,1094.02,989.306z M1037.238,966.381l-10.787,44.95c0,0-5.968,0.043-7.791,0
			c-5.752-0.132-7.64-0.323-8.988-2.998c-1.42-2.81-0.061-6.388,0.599-10.187c1.841-10.608,6.264-31.854,6.264-31.854l-15.653,0.144
			c0,0-2.979,13.646-4.394,20.322c-2.001,9.435-6.262,23.32-1.798,31.765c4.603,8.696,15.42,7.192,27.565,7.192h17.381
			c4.291-19.479,12.711-59.423,12.711-59.423L1037.238,966.381z M788.288,974.125l0.354-1.15c-0.198,0,1.559-2.696,1.36-2.696
			c-12.849,12.435-11.733,29.084-5.555,41.053c4.308,8.349,12.195,16.163,21.572,20.377c4.346,1.948,10.998,3.739,17.979,3.596
			c14.934-0.312,25.403-7.371,31.312-18.879l0.348-0.898c-5.213,5.256-13.711,8.906-20.375,9.589
			C807.555,1027.956,779.029,1003.114,788.288,974.125z M807.717,969.977c0.167-1.678,0.839-4.308,2.637-7.719
			c-5.173,6.521-8.312,11.897-7.431,20.905c1.204,12.376,12.896,24.728,25.169,26.37c14.658,1.959,25.589-4.201,29.364-13.784
			c-4.315,4.577-11.602,7.838-18.578,7.791C823.28,1003.437,805.752,989.462,807.717,969.977z M856.755,979.339
			C856.755,979.339,856.754,979.339,856.755,979.339C856.755,979.339,856.755,979.339,856.755,979.339L856.755,979.339z
			 M825.095,978.367c3.663,5.893,10.655,11.071,21.575,8.744c2.756-0.587,9-5.284,10.084-7.771
			c-9.36,6.37-15.167,4.236-17.917,3.427c-0.605-0.173-2.007-0.802-3.314-1.587c-2.9-1.744-4.333-2.542-6.591-5.826
			c-1.241-1.803-2.481-4.669-2.889-6.311c-0.672-2.716-0.486-6.893,0.791-10.489c-4.237,3.782-4.891,11.088-3.471,15.919
			C823.544,975.084,824.551,977.487,825.095,978.367z"/>
	</g>
</g>
</svg>
