<?xml version="1.0" encoding="utf-8"?>
<!-- Generator: Adobe Illustrator 16.0.0, SVG Export Plug-In . SVG Version: 6.00 Build 0)  -->
<!DOCTYPE svg PUBLIC "-//W3C//DTD SVG 1.1//EN" "http://www.w3.org/Graphics/SVG/1.1/DTD/svg11.dtd">
<svg version="1.1" id="js_1_" xmlns="http://www.w3.org/2000/svg" xmlns:xlink="http://www.w3.org/1999/xlink" x="0px" y="0px"
	 width="2000px" height="2000px" viewBox="0 0 2000 2000" enable-background="new 0 0 2000 2000" xml:space="preserve">
<g id="_x31_">
	<g>
		<rect fill-rule="evenodd" clip-rule="evenodd" fill="#FBD702" width="2000" height="2000"/>
	</g>
</g>
<g id="_x30_">
	<g>
		<path fill-rule="evenodd" clip-rule="evenodd" fill="#FFFFFF" d="M920.005,920.505v159.99h159.99v-159.99H920.005z
			 M1004.333,1057.91c-2.353,4.799-6.853,7.898-12.072,9.405c-8.02,1.8-15.679,0.7-21.379-2.699
			c-3.826-2.301-6.793-5.913-8.826-10.113l12.166-7.499c0.113,0,0.427,0.606,0.847,1.306c1.554,2.595,2.893,4.394,5.533,5.7
			c2.573,0.807,8.239,1.394,10.439-3.2c1.34-2.319,0.919-9.858,0.919-18.071c0-12.939,0.061-25.778,0.061-38.698h14.985
			l-0.026,0.374c0,13.799,0.08,27.498,0,41.191C1007.013,1044.11,1007.733,1051.71,1004.333,1057.91z M1066.089,1052.891
			c-5.206,17.798-34.204,18.398-45.804,6.692c-2.399-2.8-3.999-4.193-5.399-7.393l12.199-7.007c3.3,5,6.293,7.707,11.699,8.906
			c7.306,0.9,14.706-1.6,13.105-9.399c-1.699-6.406-15.005-7.899-24.104-14.699c-9.199-6.199-11.393-21.198-3.793-29.805
			c2.6-3.199,6.893-5.6,11.398-6.699l4.7-0.594c9.1-0.206,14.692,2.193,18.893,6.894c1.213,1.193,2.106,2.399,3.905,5.199
			c-4.806,2.993-4.806,2.993-11.698,7.5c-1.507-3.2-3.907-5.2-6.507-6c-4-1.199-9.099,0.094-10.1,4.4
			c-0.394,1.3-0.3,2.499,0.307,4.699c1.62,3.7,7.073,5.3,11.979,7.599c14.1,5.721,18.853,11.854,20.019,19.152l-0.307-0.446
			C1067.689,1048.19,1066.282,1052.29,1066.089,1052.891z"/>
	</g>
</g>
</svg>
