<?xml version="1.0" encoding="utf-8"?>
<!-- Generator: Adobe Illustrator 16.0.0, SVG Export Plug-In . SVG Version: 6.00 Build 0)  -->
<!DOCTYPE svg PUBLIC "-//W3C//DTD SVG 1.1//EN" "http://www.w3.org/Graphics/SVG/1.1/DTD/svg11.dtd">
<svg version="1.1" id="less_1_" xmlns="http://www.w3.org/2000/svg" xmlns:xlink="http://www.w3.org/1999/xlink" x="0px" y="0px"
	 width="2000px" height="2000px" viewBox="0 0 2000 2000" enable-background="new 0 0 2000 2000" xml:space="preserve">
<g id="_x31_">
	<g>
		<rect fill-rule="evenodd" clip-rule="evenodd" fill="#48C7AC" width="2000" height="2000"/>
	</g>
</g>
<g id="_x30_">
	<g>
		<path fill-rule="evenodd" clip-rule="evenodd" fill="#FFFFFF" d="M912.111,1028.277c-1.893,0-4.296-1.635-4.296-6.694v-91.077
			h-38.152c-14.525,0-20.969,5.623-20.969,23.102c0,11.551,1.637,17.991,1.637,27.905c0,5.623-3.478,11.551-13.962,12.063v13.953
			c10.484,0.256,13.962,6.184,13.962,11.805c0,9.917-1.637,15.845-1.637,27.396c0,17.479,6.443,23.102,20.712,23.102h10.485v-12.368
			h-3.223c-6.699,0-8.848-2.709-8.848-11.551c0-8.841,0.819-16.405,0.819-26.322c0-12.368-4.041-17.172-12.07-19.063v-0.817
			c8.08-1.892,12.07-6.695,12.07-19.063c0-9.66-0.819-17.48-0.819-26.322s1.893-11.295,8.848-11.295h7.212v77.073
			c0,16.406,5.625,27.14,22.043,27.14c5.114,0,9.153-0.818,12.068-1.892l-2.711-17.479
			C913.697,1028.277,912.93,1028.277,912.111,1028.277z M1095.662,997.919c-8.08-3.22-15.599-5.111-15.599-10.478
			c0-4.037,3.223-6.44,9.154-6.44c5.934,0,11.303,2.403,17.185,6.696l10.739-14.209c-6.698-5.11-15.854-10.477-28.23-10.477
			c-18.257,0-30.635,10.477-30.635,25.248c0,13.136,11.559,19.881,21.226,23.611c8.335,3.221,16.416,5.93,16.416,11.296
			c0,4.037-3.221,6.695-10.484,6.695c-6.7,0-13.45-2.709-20.713-8.33l-10.739,15.589c8.079,6.694,20.406,11.295,30.635,11.295
			c21.479,0,33.038-11.295,33.038-26.066C1117.654,1007.579,1106.146,1001.396,1095.662,997.919z M1149.669,981.564
			c0-10.478,1.638-16.662,1.638-27.906c0-17.479-6.444-23.102-20.714-23.102h-10.484v12.369h3.223c7.262,0,8.848,2.401,8.848,11.294
			c0,8.332-0.819,16.662-0.819,26.322c0,12.368,4.041,17.172,12.07,19.063v0.818c-8.081,1.891-12.07,6.695-12.07,19.063
			c0,9.66,0.819,17.479,0.819,26.321c0,9.149-1.893,11.551-8.848,11.551v0.256h-3.223v12.879h10.484
			c14.218,0,20.714-5.621,20.714-23.101c0-11.551-1.638-17.48-1.638-27.906c0-5.622,3.478-11.551,13.962-12.062v-13.953
			C1153.146,993.115,1149.669,987.187,1149.669,981.564z M1030.608,997.919c-8.335-3.22-15.854-5.111-15.854-10.478
			c0-4.037,3.223-6.44,9.155-6.44s11.302,2.403,17.185,6.696l10.738-14.209c-6.698-5.11-15.854-10.477-28.229-10.477
			c-18.258,0-30.634,10.477-30.634,25.248c0,13.136,11.557,19.881,21.224,23.611c8.335,3.221,16.416,5.93,16.416,11.296
			c0,4.037-3.221,6.695-10.484,6.695c-6.698,0-13.449-2.709-20.713-8.33l-10.483,15.589c8.08,6.694,20.406,11.295,30.635,11.295
			c21.479,0,33.038-11.295,33.038-26.066C1052.651,1007.579,1041.094,1001.396,1030.608,997.919z M951.338,962.757
			c-19.64,0-38.408,16.405-37.896,42.165c0,26.576,17.49,42.165,40.556,42.165c9.665,0,20.406-3.477,28.743-9.149l-8.081-14.208
			c-5.934,3.475-11.559,5.11-17.49,5.11c-10.741,0-19.078-5.11-21.226-17.479h48.688c0.256-1.892,0.817-5.622,0.817-9.916
			C985.757,979.674,973.891,962.757,951.338,962.757z M935.995,996.59c1.637-10.732,8.081-15.843,15.599-15.843
			c9.665,0,13.45,6.694,13.45,15.843H935.995z"/>
	</g>
</g>
</svg>
