<?xml version="1.0" encoding="utf-8"?>
<!-- Generator: Adobe Illustrator 16.0.0, SVG Export Plug-In . SVG Version: 6.00 Build 0)  -->
<!DOCTYPE svg PUBLIC "-//W3C//DTD SVG 1.1//EN" "http://www.w3.org/Graphics/SVG/1.1/DTD/svg11.dtd">
<svg version="1.1" id="php_1_" xmlns="http://www.w3.org/2000/svg" xmlns:xlink="http://www.w3.org/1999/xlink" x="0px" y="0px"
	 width="2000px" height="2000px" viewBox="0 0 2000 2000" enable-background="new 0 0 2000 2000" xml:space="preserve">
<g id="_x31_">
	<g>
		<rect fill-rule="evenodd" clip-rule="evenodd" fill="#5B68A6" width="2000" height="2000"/>
	</g>
</g>
<g id="_x30_">
	<g>
		<path fill-rule="evenodd" clip-rule="evenodd" fill="#FFFFFF" d="M938.402,979.435h-10.602l-5.896,30.27h8.625
			c6.646,0,11.589-1.228,14.726-3.648c3.102-2.386,5.249-6.51,6.374-12.306c1.058-5.385,0.648-9.169-1.192-11.181
			C948.562,980.49,944.505,979.435,938.402,979.435z M1074.754,979.435h-10.602l-5.896,30.27h8.624
			c6.647,0,11.59-1.228,14.727-3.648c3.102-2.386,5.249-6.51,6.374-12.306c1.057-5.385,0.648-9.169-1.192-11.181
			C1084.913,980.49,1080.856,979.435,1074.754,979.435z M999.999,920.496c-84.025,0-152.133,35.826-152.133,80.004
			s68.107,80.004,152.1,80.004c83.991,0,152.168-35.826,152.168-80.004S1084.026,920.496,999.999,920.496z M961.446,1016.147
			c-3.647,3.408-7.772,5.861-12.237,7.327c-4.397,1.432-10.056,2.147-16.806,2.147h-13.601l-3.887,19.976
			c-0.136,0.784-0.818,1.33-1.636,1.33h-17.454c-0.477,0-0.953-0.205-1.261-0.613c-0.306-0.376-0.442-0.887-0.341-1.365
			l15.579-80.173c0.136-0.785,0.817-1.33,1.637-1.33h33.576c10.566,0,18.407,2.863,23.349,8.522
			c4.979,5.692,6.512,13.634,4.569,23.623c-0.784,4.057-2.147,7.84-4.023,11.215C967.002,1010.215,964.48,1013.352,961.446,1016.147
			z M1011.692,1025.043c-0.308-0.375-0.443-0.887-0.341-1.364l6.886-35.485c0.647-3.374,0.477-5.794-0.443-6.816
			c-0.579-0.614-2.318-1.671-7.499-1.671h-12.477l-8.658,44.621c-0.137,0.784-0.818,1.33-1.637,1.33h-17.315
			c-0.478,0-0.956-0.205-1.262-0.614c-0.307-0.375-0.443-0.887-0.341-1.364l15.577-80.173c0.138-0.784,0.819-1.33,1.637-1.33h17.316
			c0.477,0,0.955,0.205,1.261,0.613c0.308,0.376,0.443,0.886,0.341,1.363l-3.749,19.362h13.431c10.228,0,17.181,1.807,21.237,5.522
			c4.125,3.783,5.42,9.852,3.817,17.998l-7.26,37.325c-0.138,0.784-0.82,1.33-1.638,1.33h-17.59
			C1012.477,1025.657,1011.999,1025.419,1011.692,1025.043z M1109.251,995.592c-0.784,4.057-2.147,7.84-4.057,11.215
			c-1.907,3.374-4.396,6.51-7.43,9.305c-3.649,3.409-7.772,5.863-12.239,7.329c-4.397,1.433-10.056,2.148-16.804,2.148h-13.603
			l-3.885,19.976c-0.137,0.783-0.818,1.329-1.638,1.329h-17.452c-0.477,0-0.955-0.204-1.261-0.614
			c-0.308-0.374-0.443-0.887-0.341-1.363l15.578-80.174c0.136-0.784,0.818-1.33,1.636-1.33h33.576
			c10.568,0,18.407,2.863,23.351,8.521C1109.66,977.661,1111.195,985.603,1109.251,995.592z"/>
	</g>
</g>
</svg>
