<?xml version="1.0" encoding="utf-8"?>
<!-- Generator: Adobe Illustrator 16.0.0, SVG Export Plug-In . SVG Version: 6.00 Build 0)  -->
<!DOCTYPE svg PUBLIC "-//W3C//DTD SVG 1.1//EN" "http://www.w3.org/Graphics/SVG/1.1/DTD/svg11.dtd">
<svg version="1.1" id="图层_1" xmlns="http://www.w3.org/2000/svg" xmlns:xlink="http://www.w3.org/1999/xlink" x="0px" y="0px"
	 width="240px" height="240px" viewBox="-20 -20 240 240" enable-background="new -20 -20 240 240" xml:space="preserve">
<path d="M94.769,53.758c2.055,0.595,4.359,0.93,6.794,0.93c8.63,0,15.625-4.197,15.625-9.375c0-0.188-0.01-0.375-0.028-0.563
	c-0.484-4.914-7.281-8.813-15.597-8.813c-8.63,0-15.625,4.197-15.625,9.375C85.938,49.03,89.542,52.241,94.769,53.758z
	 M133.44,40.398c22.968-4.683,41.197-1.749,47.75,9.602c6.554,11.352-0.024,28.611-15.568,46.164l0.003,0.711
	c0,36.244-29.381,65.625-65.625,65.625c-11.768,0.019-23.322-3.143-33.442-9.148c-22.964,4.683-41.195,1.748-47.748-9.602
	c-6.553-11.352,0.025-28.611,15.568-46.164c-0.002-0.237-0.003-0.474-0.003-0.711c0-36.244,29.381-65.625,65.625-65.625
	c11.768-0.019,23.322,3.142,33.442,9.148H133.44z M34.987,105.865c-11.134,13.646-15.617,26.355-10.764,34.76
	c9.492,16.44,51.114,10.183,92.964-13.979c41.85-24.163,68.083-57.078,58.589-73.521c-4.853-8.406-18.103-10.878-35.49-8.058
	c11.298,8.797,19.644,21.211,23.297,35.5c-9.711,12.972-27.405,27.896-49.521,40.664c-22.106,12.764-43.87,20.625-59.956,22.552
	c-10.156-9.937-17.097-23.145-19.121-37.918H34.987z M60.938,104.688c4.315,0,7.813-3.498,7.813-7.813s-3.498-7.813-7.813-7.813
	s-7.813,3.498-7.813,7.813S56.623,104.688,60.938,104.688z M140.625,68.75c4.314,0,7.813-2.797,7.813-6.25s-3.498-6.25-7.813-6.25
	s-7.813,2.797-7.813,6.25S136.311,68.75,140.625,68.75z M12.5,67.188c-6.903,0-12.5-5.597-12.5-12.5s5.597-12.5,12.5-12.5
	S25,47.784,25,54.688S19.403,67.188,12.5,67.188z M187.5,110.938v-3.125c0-1.727,1.398-3.125,3.125-3.125s3.125,1.398,3.125,3.125
	v3.125h3.125c1.727,0,3.125,1.398,3.125,3.125s-1.398,3.125-3.125,3.125h-3.125v3.125c0,1.727-1.398,3.125-3.125,3.125
	s-3.125-1.398-3.125-3.125v-3.125h-3.125c-1.727,0-3.125-1.398-3.125-3.125s1.398-3.125,3.125-3.125H187.5z M175,168.75
	c-3.451,0-6.25-2.799-6.25-6.25s2.799-6.25,6.25-6.25s6.25,2.799,6.25,6.25S178.451,168.75,175,168.75z M175,165.625
	c1.727,0,3.125-1.398,3.125-3.125s-1.398-3.125-3.125-3.125s-3.125,1.398-3.125,3.125S173.273,165.625,175,165.625z"/>
</svg>
