<?xml version="1.0" encoding="utf-8"?>
<!-- Generator: Adobe Illustrator 16.0.0, SVG Export Plug-In . SVG Version: 6.00 Build 0)  -->
<!DOCTYPE svg PUBLIC "-//W3C//DTD SVG 1.1//EN" "http://www.w3.org/Graphics/SVG/1.1/DTD/svg11.dtd">
<svg version="1.1" id="图层_1" xmlns="http://www.w3.org/2000/svg" xmlns:xlink="http://www.w3.org/1999/xlink" x="0px" y="0px"
	 width="300px" height="300px" viewBox="-50 -50 300 300" enable-background="new -50 -50 300 300" xml:space="preserve">
<path d="M184.072,13.222c-17.525-17.512-45.969-17.512-63.494,0L81.016,52.753c-3.125,3.125-3.125,8.166,0,11.244
	c3.128,3.125,8.169,3.125,11.25,0l39.563-39.531c11.297-11.288,29.678-11.288,40.972,0c5.45,5.413,8.51,12.778,8.5,20.459
	c0.024,7.684-3.038,15.055-8.5,20.459l-39.54,39.532c-3.125,3.125-3.125,8.165,0,11.243c1.543,1.541,3.59,2.313,5.637,2.313
	s4.072-0.771,5.635-2.313l39.563-39.531C201.597,59.159,201.597,30.69,184.072,13.222z"/>
<path d="M68.822,47.781c4.379,0.01,7.937-3.531,7.947-7.909c0-0.01,0-0.019,0-0.028L76.747,7.962
	c0.007-4.378-3.537-7.934-7.916-7.94c-0.01,0-0.021,0-0.031,0c-4.378-0.012-7.938,3.527-7.95,7.906c0,0.011,0,0.023,0,0.034v31.9
	c0.022,2.2,0.881,4.16,2.356,5.591c1.49,1.489,3.509,2.328,5.616,2.331V47.781z M164.037,152.459
	c-1.489-1.482-3.511-2.306-5.612-2.287c-2.047,0-4.094,0.769-5.638,2.313c-3.125,3.078-3.125,8.115,0,11.24l22.566,22.528
	c3.084,3.125,8.125,3.125,11.25,0c3.125-3.081,3.125-8.118,0-11.243l-22.563-22.551H164.037z M181.412,120.362h-25.649
	c-1.692-0.002-3.313,0.68-4.494,1.891c-2.501,2.469-2.526,6.497-0.059,8.998c1.202,1.217,2.843,1.899,4.553,1.893l25.634-0.019
	c3.518,0.009,6.376-2.836,6.385-6.354c0-0.009,0-0.019,0-0.027c0.021-3.504-2.803-6.361-6.307-6.382
	C181.454,120.362,181.434,120.362,181.412,120.362z M128.506,149.381c-4.379-0.012-7.938,3.527-7.949,7.906c0,0.012,0,0.023,0,0.035
	l0.021,31.878c-0.007,4.378,3.537,7.934,7.916,7.94c0.012,0,0.022,0,0.034,0c4.378,0.01,7.937-3.531,7.946-7.909
	c0-0.011,0-0.021,0-0.031v-31.9c0.002-2.104-0.848-4.12-2.355-5.587C132.63,150.225,130.611,149.386,128.506,149.381
	L128.506,149.381z M104.969,133.188l-39.534,39.534c-5.421,5.446-12.792,8.503-20.475,8.491c-7.687,0.025-15.063-3.033-20.475-8.491
	c-5.459-5.478-8.519-12.737-8.519-20.459c-0.025-7.683,3.036-15.055,8.497-20.46l39.563-39.534c3.125-3.125,3.125-8.162,0-11.244
	c-3.125-3.125-8.168-3.125-11.25,0l-39.565,39.491c-8.453,8.391-13.194,19.815-13.166,31.725c0,11.969,4.668,23.254,13.166,31.7
	c8.408,8.422,19.824,13.147,31.725,13.135c11.49,0,23.006-4.375,31.725-13.135l39.585-39.509c3.125-3.125,3.125-8.163,0-11.244
	c-3.117-3.102-8.154-3.102-11.272,0H104.969z M33.288,44.703c1.584,1.541,3.565,2.313,5.616,2.288c2.047,0,4.094-0.769,5.634-2.31
	c3.125-3.078,3.125-8.119,0-11.241L21.972,10.935c-3.081-3.125-8.125-3.125-11.25,0c-3.125,3.078-3.125,8.119,0,11.24l22.566,22.531
	V44.703z M8.081,76.825H40c2.106,0.002,4.124-0.848,5.594-2.356c3.112-3.07,3.146-8.083,0.075-11.194
	c-1.496-1.516-3.539-2.365-5.668-2.355L8.103,60.938c-4.378-0.012-7.938,3.528-7.95,7.906c0,0.011,0,0.023,0,0.034
	c-0.063,4.378,3.5,7.944,7.928,7.944V76.825z"/>
</svg>
