<?xml version="1.0" encoding="utf-8"?>
<!-- Generator: Adobe Illustrator 16.0.0, SVG Export Plug-In . SVG Version: 6.00 Build 0)  -->
<!DOCTYPE svg PUBLIC "-//W3C//DTD SVG 1.1//EN" "http://www.w3.org/Graphics/SVG/1.1/DTD/svg11.dtd">
<svg version="1.1" id="图层_1" xmlns="http://www.w3.org/2000/svg" xmlns:xlink="http://www.w3.org/1999/xlink" x="0px" y="0px"
	 width="300px" height="300px" viewBox="-208.094 150.5 300 300" enable-background="new -208.094 150.5 300 300"
	 xml:space="preserve">
<path d="M2.524,239.453l34.342-38.201l-11.48,49.633L2.524,239.453z M-28.057,227.974l64.923-26.722l-42.012,38.201L-28.057,227.974
	z M-26.869,276.715c0.644,0.644,0.644,1.684,0.05,2.326c-1.534,1.633-3.117,3.217-4.801,4.75c-0.643,0.545-1.633,0.495-2.227-0.148
	c-0.594-0.692-0.594-1.731,0.1-2.424c1.583-1.436,3.117-2.92,4.602-4.504c0.297-0.297,0.693-0.494,1.139-0.494
	C-27.611,276.221-27.166,276.418-26.869,276.715L-26.869,276.715z M-42.259,291.561c-0.494,0.297-1.139,0.297-1.633,0
	c-0.495-0.346-0.792-0.94-0.742-1.534c0-0.594,0.346-1.138,0.891-1.435c1.831-1.039,3.612-2.227,5.295-3.465
	c0.742-0.445,1.732-0.246,2.227,0.445c0.495,0.743,0.347,1.732-0.297,2.277C-38.399,289.234-40.279,290.472-42.259,291.561
	L-42.259,291.561z M-48.989,285.424c-0.891,0.1-1.682-0.594-1.781-1.484c-0.099-1.979-0.742-3.859-1.781-5.541
	c-0.494-0.743-0.346-1.782,0.396-2.326c0.346-0.248,0.791-0.347,1.236-0.297c0.445,0.099,0.793,0.346,1.039,0.692
	c1.436,2.128,2.277,4.651,2.376,7.225C-47.504,284.584-48.147,285.326-48.989,285.424L-48.989,285.424z M-57.005,274.538
	c-1.781-0.94-3.662-1.583-5.641-1.931c-0.594-0.098-1.09-0.494-1.287-1.039c-0.198-0.544-0.1-1.188,0.247-1.682
	c0.347-0.445,0.94-0.693,1.534-0.594c2.326,0.396,4.602,1.138,6.68,2.275c0.545,0.248,0.892,0.793,0.941,1.436
	c0.049,0.594-0.248,1.188-0.742,1.534C-55.866,274.835-56.511,274.835-57.005,274.538z M-60.716,293.738
	c-0.1,0.396-0.396,0.791-0.742,0.989c-0.396,0.198-0.842,0.247-1.238,0.148c-2.275-0.644-4.403-1.683-6.334-3.067
	c-0.692-0.545-0.841-1.535-0.396-2.277c0.247-0.346,0.594-0.594,0.989-0.692c0.396-0.099,0.842,0,1.188,0.198
	c1.633,1.138,3.464,2.029,5.394,2.623C-60.964,291.906-60.469,292.848-60.716,293.738L-60.716,293.738z M-68.832,272.658
	c-1.88,0.247-3.662,1.088-5.097,2.325c-0.445,0.396-1.039,0.544-1.584,0.396c-0.297-0.099-0.544-0.247-0.692-0.445
	c-0.594-0.692-0.594-1.731,0.05-2.375c1.88-1.683,4.255-2.82,6.729-3.217c0.297-0.049,0.544,0,0.841,0.1
	c0.842,0.346,1.287,1.286,0.99,2.177C-67.743,272.113-68.238,272.559-68.832,272.658L-68.832,272.658z M-87.19,205.063
	c-3.86,0-7.324-2.326-8.809-5.889s-0.643-7.67,2.078-10.393c2.722-2.721,6.829-3.563,10.393-2.078
	c3.563,1.484,5.888,4.949,5.888,8.809C-77.641,200.807-81.945,205.063-87.19,205.063L-87.19,205.063z"/>
<path d="M-87.19,189.821c-3.167,0-5.74,2.573-5.74,5.739c0,3.168,2.573,5.74,5.74,5.74s5.74-2.572,5.74-5.74
	c0-1.533-0.594-2.969-1.683-4.057C-84.222,190.415-85.706,189.821-87.19,189.821z M-74.374,286.909
	c-1.683-1.831-2.969-4.009-3.712-6.384c-0.148-0.594-0.049-1.188,0.396-1.633c0.396-0.445,0.989-0.643,1.534-0.445
	c0.594,0.148,1.039,0.594,1.188,1.139c0.644,1.88,1.683,3.611,3.019,5.096c0.594,0.693,0.544,1.732-0.148,2.376
	c-0.297,0.297-0.742,0.445-1.188,0.445C-73.682,287.453-74.127,287.256-74.374,286.909L-74.374,286.909z M-24.544,274.043
	c-0.643-0.594-0.742-1.633-0.247-2.326c1.386-1.682,2.722-3.414,3.959-5.146c0.247-0.347,0.644-0.544,1.039-0.644
	c0.396-0.049,0.841,0.049,1.188,0.297c0.692,0.594,0.841,1.584,0.347,2.326c-1.336,1.781-2.672,3.611-4.107,5.295
	c-0.297,0.346-0.643,0.544-1.088,0.544C-23.802,274.439-24.247,274.291-24.544,274.043z M-15.735,263.651
	c-0.594-0.05-1.139-0.396-1.385-0.94c-0.248-0.544-0.199-1.188,0.148-1.731c1.188-1.831,2.325-3.712,3.414-5.592
	c0.197-0.396,0.594-0.644,0.989-0.742s0.841-0.05,1.237,0.198c0.742,0.494,0.99,1.484,0.545,2.275
	c-1.139,1.93-2.277,3.91-3.514,5.74C-14.597,263.354-15.142,263.651-15.735,263.651z M-9.797,251.973
	c-0.792-0.445-1.089-1.484-0.644-2.275c0.644-1.188,1.237-2.425,1.831-3.613c0.396-0.742,1.286-1.088,2.028-0.742
	c0.842,0.396,1.188,1.387,0.842,2.228c-0.594,1.237-1.237,2.523-1.881,3.761c-0.197,0.396-0.544,0.692-0.939,0.791
	C-8.956,252.221-9.401,252.171-9.797,251.973z M6.335,247.074l-7.67,11.431v-15.241L6.335,247.074z M13.757,361.58l-26.523-64.873
	h-37.656c0.297-0.693,0.594-1.386,0.84-2.078c0.199-0.1,0.445-0.1,0.645-0.198c0.297-0.05,0.544-0.247,0.742-0.445
	c0.594-0.692,0.544-1.731-0.1-2.425c-0.099-0.1-0.197-0.1-0.297-0.148c0.05-0.248,0.148-0.396,0.198-0.644
	c0.198-0.841-0.297-1.731-1.138-1.979c-0.445-0.099-0.891-0.049-1.238,0.148c-0.396,0.248-0.643,0.594-0.742,0.99
	c-0.148,0.594-0.346,1.236-0.544,1.83c-1.237,0.298-2.523,0.446-3.761,0.545c-0.891,0.1-1.584,0.842-1.534,1.781
	c0.053,0.891,0.791,1.586,1.683,1.584c0.742-0.05,1.534-0.148,2.276-0.248l-0.198,0.545c0,0-0.049,0.049-0.049,0.099
	c-0.05,0.198-0.05,0.445,0,0.644h-66.013l-26.523,64.873h-0.198v53.443h160.33V361.58H13.757z M-12.767,306.258l22.12,55.373H-6.531
	l-6.235-15.291V306.258z M-115.842,300.518h99.266v42.012h-99.266V300.518z M-115.842,346.34h99.266l6.087,15.291h-40.479v3.81
	c0,8.412-6.829,15.29-15.291,15.29c-8.412,0-15.291-6.828-15.291-15.29v-3.81h-40.478L-115.842,346.34z M-119.652,306.258v40.082
	l-6.235,15.291h-15.934L-119.652,306.258z M10.146,411.213h-152.709v-45.822h57.253c0,10.541,8.562,19.102,19.102,19.102
	s19.101-8.561,19.101-19.102h57.254V411.213L10.146,411.213z"/>
<path d="M-58.44,308.93c-0.297,0.346-0.692,0.544-1.138,0.544s-0.841-0.148-1.188-0.445c-0.644-0.644-0.692-1.683-0.099-2.375
	c1.435-1.583,2.771-3.315,3.958-5.097c0.247-0.347,0.644-0.545,1.04-0.594c0.395-0.05,0.841,0.049,1.188,0.297
	c0.692,0.544,0.891,1.484,0.445,2.275C-55.521,305.466-56.906,307.247-58.44,308.93z M-68.288,318.134
	c-0.346,0.247-0.742,0.347-1.188,0.297c-0.396-0.05-0.791-0.297-1.039-0.644c-0.544-0.742-0.396-1.732,0.248-2.326
	c1.731-1.385,3.414-2.771,4.898-4.205c0.297-0.297,0.742-0.445,1.188-0.396s0.842,0.248,1.09,0.545
	c0.594,0.692,0.543,1.731-0.149,2.375C-64.823,315.313-66.556,316.797-68.288,318.134L-68.288,318.134z M-79.224,325.804
	c-0.347,0.198-0.792,0.297-1.237,0.148c-0.396-0.099-0.742-0.396-0.94-0.792c-0.445-0.791-0.247-1.781,0.495-2.276
	c1.831-1.089,3.612-2.276,5.394-3.563c0.347-0.247,0.792-0.347,1.237-0.247c0.445,0.099,0.792,0.346,1.039,0.692
	c0.495,0.792,0.297,1.831-0.445,2.375C-75.513,323.428-77.343,324.616-79.224,325.804L-79.224,325.804z M-90.704,332.286
	c-0.396,0.198-0.841,0.247-1.237,0.099c-0.396-0.148-0.742-0.445-0.939-0.841c-0.396-0.841-0.1-1.831,0.692-2.276
	c1.93-0.94,3.811-1.979,5.69-3.068c0.396-0.197,0.842-0.247,1.237-0.099s0.742,0.396,0.94,0.792
	c0.396,0.791,0.148,1.781-0.594,2.275C-86.844,330.207-88.774,331.297-90.704,332.286z M-171.215,243.264
	c-3.167,0-5.74-2.572-5.74-5.74c0-3.166,2.573-5.74,5.74-5.74s5.74,2.574,5.74,5.74
	C-165.475,240.691-168.048,243.264-171.215,243.264z M58.54,292.056H31.918c-1.237,0-2.227-0.989-2.227-2.228
	c0-1.236,0.989-2.227,2.227-2.227H58.54c1.238,0,2.228,0.99,2.228,2.227C60.768,291.016,59.778,292.056,58.54,292.056z"/>
<path d="M47.456,276.863v26.227c0,1.336-1.088,2.426-2.425,2.426c-1.336,0-2.425-1.09-2.425-2.426v-26.227
	c0-1.336,1.089-2.424,2.425-2.424C46.368,274.439,47.456,275.527,47.456,276.863z"/>
</svg>
