<?xml version="1.0" encoding="utf-8"?>
<!-- Generator: Adobe Illustrator 16.0.0, SVG Export Plug-In . SVG Version: 6.00 Build 0)  -->
<!DOCTYPE svg PUBLIC "-//W3C//DTD SVG 1.1//EN" "http://www.w3.org/Graphics/SVG/1.1/DTD/svg11.dtd">
<svg version="1.1" id="love_1_" xmlns="http://www.w3.org/2000/svg" xmlns:xlink="http://www.w3.org/1999/xlink" x="0px" y="0px"
	 width="400px" height="400px" viewBox="0 0 400 400" enable-background="new 0 0 400 400" xml:space="preserve">
<g id="love">
	<g>
		<path fill-rule="evenodd" clip-rule="evenodd" fill='#08f' d="M117.472,236.849c-3.551-2.765-7.268-4.619-11.148-5.561
			c-3.88-0.939-9.591-1.411-17.129-1.411H50.271v111.222h22.244V310.72h19.643c6.658,0,12.289-0.83,16.896-2.489
			c4.606-1.66,8.684-4.316,12.237-7.969c7.102-7.304,10.652-16.875,10.652-28.718C131.942,255.939,127.118,244.376,117.472,236.849z
			 M101.896,288.808c-3.32,3.1-8.578,4.648-15.77,4.648H72.514v-46.314H87.62c6.861,0,12.118,1.966,15.77,5.893
			c3.652,3.93,5.478,9.545,5.478,16.85C108.868,278.406,106.544,284.715,101.896,288.808z M231.873,237.015
			c-2.656-2.655-5.894-4.508-9.712-5.561c-3.817-1.051-9.104-1.577-15.853-1.577h-22.742v-29.88h-22.244V310.72h22.244v-63.578
			h18.094c6.197,0.111,10.401,1.327,12.616,3.651c1.217,1.328,2.019,2.905,2.407,4.731c0.387,1.826,0.581,4.897,0.581,9.213v45.982
			h22.244v-50.298C239.509,249.465,236.962,241.663,231.873,237.015z M340.739,236.849c-3.551-2.765-7.269-4.619-11.148-5.561
			c-3.88-0.939-9.592-1.411-17.129-1.411h-38.925v111.222h22.244V310.72h19.643c6.658,0,12.289-0.83,16.896-2.489
			c4.606-1.66,8.685-4.316,12.237-7.969c7.102-7.304,10.652-16.875,10.652-28.718C355.209,255.939,350.385,244.376,340.739,236.849z
			 M325.163,288.808c-3.319,3.1-8.577,4.648-15.77,4.648h-13.612v-46.314h15.106c6.86,0,12.118,1.966,15.77,5.893
			c3.652,3.93,5.479,9.545,5.479,16.85C332.136,278.406,329.812,284.715,325.163,288.808z M74.01,58.999H51.766v110.723H74.01
			V58.999z M176.098,130.38c0-11.952-3.265-21.855-9.794-29.715c-7.083-8.632-18.094-12.948-33.034-12.948
			c-14.167,0.111-25.012,4.373-32.536,12.782c-6.751,7.527-10.126,16.933-10.126,28.221c0,13.392,3.541,23.572,10.624,30.544
			c7.636,7.748,18.203,11.62,31.706,11.62c13.057,0,23.349-3.429,30.876-10.292C172.003,153.067,176.098,142.996,176.098,130.38z
			 M133.603,153.952c-7.636,0-13.28-2.988-16.932-8.964c-2.215-3.541-3.32-8.688-3.32-15.438c0-16.601,6.695-24.9,20.086-24.9
			c13.28,0.223,19.92,8.411,19.92,24.568C153.356,145.709,146.771,153.952,133.603,153.952z M238.844,169.722l34.86-80.843h-23.572
			l-22.576,55.611l-20.584-55.611h-24.236l32.204,80.843H238.844z M295.116,162.252c3.54,2.656,7.33,4.565,11.371,5.728
			c4.038,1.161,9.268,1.742,15.687,1.742h29.548v-17.264h-27.058c-6.752,0-11.62-1.105-14.608-3.32
			c-2.987-2.212-4.704-5.976-5.146-11.288h46.812v-17.264H304.91c0.553-5.533,2.047-9.322,4.482-11.372
			c2.433-2.046,6.694-3.07,12.781-3.07h29.548V88.879h-31.208c-8.079,0-14.607,1.054-19.588,3.154
			c-4.979,2.104-9.241,5.644-12.781,10.624c-5.203,7.304-7.803,15.827-7.803,25.564
			C280.342,143.273,285.265,154.616,295.116,162.252z"/>
	</g>
</g>
</svg>
