<?xml version="1.0" encoding="utf-8"?>
<!-- Generator: Adobe Illustrator 16.0.0, SVG Export Plug-In . SVG Version: 6.00 Build 0)  -->
<!DOCTYPE svg PUBLIC "-//W3C//DTD SVG 1.1//EN" "http://www.w3.org/Graphics/SVG/1.1/DTD/svg11.dtd">
<svg version="1.1" id="形状_1_1_" xmlns="http://www.w3.org/2000/svg" xmlns:xlink="http://www.w3.org/1999/xlink" x="0px"
	 y="0px" width="400px" height="400px" viewBox="0 0 400 400" enable-background="new 0 0 400 400" xml:space="preserve">
<g id="形状_1">
	<g>
		<path fill-rule="evenodd" clip-rule="evenodd" fill="#fff" d="M125.942,208.569l-12.429-33.572H98.882l19.443,48.808h14.431l21.047-48.808
			h-14.231L125.942,208.569z M69.016,174.295c-8.552,0.068-15.099,2.639-19.642,7.718c-4.077,4.543-6.114,10.223-6.114,17.036
			c0,8.085,2.138,14.231,6.414,18.441c4.609,4.677,10.991,7.016,19.141,7.016c7.885,0,14.099-2.071,18.642-6.215
			c4.945-4.543,7.416-10.622,7.416-18.238c0-7.217-1.97-13.196-5.913-17.94C84.684,176.901,78.036,174.295,69.016,174.295z
			 M69.217,214.284c-4.609,0-8.018-1.805-10.223-5.412c-1.336-2.139-2.003-5.245-2.003-9.32c0-10.023,4.042-15.034,12.126-15.034
			c8.017,0.134,12.025,5.079,12.025,14.833C81.143,209.307,77.167,214.284,69.217,214.284z M19.809,223.805h13.43v-66.848h-13.43
			V223.805z M307.572,175.966c-2.295-0.646-5.479-0.969-9.554-0.969h-13.73v-18.04h-13.431v66.848h13.431V185.42h10.924
			c3.742,0.066,6.28,0.801,7.616,2.204c0.735,0.803,1.214,1.749,1.438,2.84c0.244,1.113,0.366,2.974,0.366,5.579v27.762h13.43
			v-30.367c0-6.614-1.537-11.325-4.609-14.132C311.849,177.704,309.889,176.59,307.572,175.966z M170.238,176.901
			c-3.007,1.27-5.578,3.408-7.716,6.414c-3.142,4.41-4.711,9.554-4.711,15.434c0,9.086,2.973,15.935,8.919,20.546
			c2.138,1.603,4.421,2.75,6.849,3.439c2.451,0.713,5.613,1.07,9.488,1.07h17.839v-10.423h-16.336c-4.075,0-7.015-0.669-8.819-2.006
			c-1.803-1.335-2.84-3.607-3.107-6.813h28.262V194.14h-28.262c0.335-3.341,1.236-5.624,2.707-6.849
			c1.469-1.248,4.042-1.871,7.716-1.871h17.839v-10.423h-18.841C177.187,174.997,173.245,175.632,170.238,176.901z M371.078,179.206
			c-2.138-1.67-4.376-2.783-6.715-3.341c-2.338-0.579-5.78-0.868-10.323-0.868h-23.45v67.147h13.429v-18.34h11.826
			c4.009,0,7.394-0.503,10.156-1.504c2.783-1.002,5.244-2.606,7.383-4.811c4.275-4.409,6.414-10.189,6.414-17.338
			C379.798,190.732,376.89,183.749,371.078,179.206z M361.758,210.575c-2.005,1.871-5.178,2.807-9.521,2.807h-8.219V185.42h9.121
			c4.142,0,7.314,1.192,9.521,3.574c2.204,2.361,3.306,5.746,3.306,10.156C365.966,204.295,364.564,208.104,361.758,210.575z
			 M252.317,179.206c-2.139-1.67-4.376-2.783-6.715-3.341c-2.338-0.579-5.778-0.868-10.321-0.868h-23.452v67.147h13.431v-18.34
			h11.824c4.009,0,7.395-0.503,10.156-1.504c2.784-1.002,5.244-2.606,7.383-4.811c4.275-4.409,6.414-10.189,6.414-17.338
			C261.037,190.732,258.131,183.749,252.317,179.206z M242.997,210.575c-2.004,1.871-5.179,2.807-9.521,2.807h-8.217V185.42h9.119
			c4.142,0,7.316,1.192,9.521,3.574c2.204,2.361,3.308,5.746,3.308,10.156C247.207,204.295,245.804,208.104,242.997,210.575z"/>
	</g>
</g>
</svg>
