<?xml version="1.0" encoding="utf-8"?>
<!-- Generator: Adobe Illustrator 16.0.0, SVG Export Plug-In . SVG Version: 6.00 Build 0)  -->
<!DOCTYPE svg PUBLIC "-//W3C//DTD SVG 1.1//EN" "http://www.w3.org/Graphics/SVG/1.1/DTD/svg11.dtd">
<svg version="1.1" xmlns="http://www.w3.org/2000/svg" xmlns:xlink="http://www.w3.org/1999/xlink" x="0px" y="0px" width="813px"
	 height="813px" viewBox="0 0 813 813" enable-background="new 0 0 813 813" xml:space="preserve">
<g id="矩形_1_1_" enable-background="new    ">
	<g id="矩形_1">
		<g>
			<rect fill-rule="evenodd" clip-rule="evenodd" fill="#FFFFFF" width="813" height="813"/>
		</g>
	</g>
</g>
<g id="形状_1_1_" enable-background="new    ">
	<g id="形状_1">
		<g>
			<path fill-rule="evenodd" clip-rule="evenodd" fill="#CCCCCC" d="M405.229,813.094c0.426,0,0.848,0.02,1.277,0.02
				c0.426,0,0.848-0.016,1.277-0.02l-1.277-0.013L405.229,813.094z M466.057,639.047L346.9,639.133
				c-2.797,0-5.059,2.266-5.059,5.059l0.055,80.652c0,2.793,2.269,5.059,5.059,5.059l119.16-0.082c2.797,0,5.059-2.27,5.059-5.059
				l-0.059-80.652C471.115,641.313,468.854,639.047,466.057,639.047z M617.412,388.495
				c-1.969-107.41-95.891-193.093-210.906-193.629c-115.015,0.536-208.941,86.223-210.906,193.629
				c-1.23,66.981,39.902,133.313,92.766,175.103l118.14,0.93l118.141-0.93C577.51,521.809,618.643,455.477,617.412,388.495z
				 M503.689,530.641c2.629-1.899,51.809-46.039,36.676-149.935c-7.559-51.815-40.441-82.976-63.434-105.675
				c-16.711-16.504-28.195-24.363-20.934-22.196c29.203,8.708,97.613,25.142,116.23,104.021
				C600.045,474.797,508.533,527.816,503.689,530.641z M813.021-0.008c0,0-293.215-0.105-406.516-0.105C289.119-0.113,0,0,0,0
				s-0.107,299.32-0.107,406.499C-0.107,494.797,0,813,0,813h235V702c0,0-4.169-68.591,42.525-107.402l-11.141-5.453
				c-62.086-45.828-103.668-120.992-109.89-199.59c-0.664-8.353-0.922-16.731-0.77-25.109
				c2.441-133.161,114.301-239.348,250.773-239.168c136.484-0.18,248.34,106.007,250.777,239.168
				c0.156,8.378-0.102,16.757-0.77,25.109c-6.223,78.598-47.809,153.766-109.887,199.59l-11.137,5.453
				C582.178,633.409,578,702,578,702v111l234.719-0.409c0,0,0.389-308.096,0.389-406.088
				C813.115,295.236,813.021-0.008,813.021-0.008z"/>
		</g>
	</g>
</g>
</svg>
