<?xml version="1.0" standalone="no"?><!DOCTYPE svg PUBLIC "-//W3C//DTD SVG 1.1//EN" "http://www.w3.org/Graphics/SVG/1.1/DTD/svg11.dtd"><svg t="1647929027314" class="icon" viewBox="0 0 1375 1024" version="1.1" xmlns="http://www.w3.org/2000/svg" p-id="8770" xmlns:xlink="http://www.w3.org/1999/xlink" width="268.5546875" height="200"><defs><style type="text/css">@font-face { font-family: feedback-iconfont; src: url("//at.alicdn.com/t/font_1031158_u69w8yhxdu.woff2?t=1630033759944") format("woff2"), url("//at.alicdn.com/t/font_1031158_u69w8yhxdu.woff?t=1630033759944") format("woff"), url("//at.alicdn.com/t/font_1031158_u69w8yhxdu.ttf?t=1630033759944") format("truetype"); }
</style></defs><path d="M213.970149 787.715821c5.807761 0.137552 10.423403 4.707343 10.392836 10.316418a10.285851 10.285851 0 0 1-10.392836 10.285851h-21.473433v20.816238a10.484537 10.484537 0 0 1-10.652656 10.087165 10.652657 10.652657 0 0 1-7.458388-2.85803 9.995463 9.995463 0 0 1-3.178985-7.12215v-20.923223H149.71797a10.469254 10.469254 0 0 1-10.423403-10.285851c0-5.700776 4.585075-10.301134 10.423403-10.301135h21.488717v-20.785671a10.484537 10.484537 0 0 1 10.637373-10.102448c5.868896 0 10.652657 4.432239 10.652656 10.087164v20.785672H213.970149z m1129.670687-126.54806V640.38209a9.964896 9.964896 0 0 0-3.102567-7.152717 10.62209 10.62209 0 0 0-7.412538-2.934448 10.484537 10.484537 0 0 0-10.729074 10.087165v20.785671h-21.504a10.591522 10.591522 0 0 0-7.38197 2.995582 9.934328 9.934328 0 0 0-3.02615 7.183284c0 5.654925 4.676776 10.408119 10.40812 10.408119h21.504v20.816239c0 5.670209 4.753194 10.071881 10.591522 10.071881a10.484537 10.484537 0 0 0 10.652657-10.087165v-20.785671h21.458149a10.285851 10.285851 0 0 0 10.423403-10.301134 10.469254 10.469254 0 0 0-10.423403-10.285851h-21.458149zM759.242507 57.970627h31.682866c8.925612 0 16.154746 6.847045 16.154746 15.436418-0.061134 8.57409-7.290269 15.482269-16.154746 15.436418h-31.682866v30.704716a15.253015 15.253015 0 0 1-4.615641 11.034746c-2.995582 2.934448-7.076299 4.585075-11.325135 4.615642-8.864478-0.076418-16.00191-7.076299-15.956059-15.650388V88.858746h-31.682866a16.261731 16.261731 0 0 1-11.370985-4.432239 15.253015 15.253015 0 0 1-4.783761-10.927761 15.849075 15.849075 0 0 1 16.17003-15.528119h31.667582v-30.72a15.237731 15.237731 0 0 1 4.615641-11.034746c2.995582-2.949731 7.076299-4.600358 11.340418-4.615642 8.818627 0 15.940776 7.015164 15.940776 15.650388v30.704716zM224.745075 975.168955H397.373134c11.707224 0 21.198328 9.154866 21.198329 20.586985 0 11.370985-9.628657 20.602269-21.198329 20.602269H224.745075c-11.707224 0-21.198328-9.170149-21.228896-20.510567 0-11.462687 9.64394-20.678687 21.228896-20.678687z m320.955224 0H1253.253731c11.707224 0 21.198328 9.154866 21.198329 20.586985 0 11.370985-9.628657 20.602269-21.198329 20.602269H545.700299c-11.707224 0-21.198328-9.170149-21.228896-20.510567 0-11.462687 9.64394-20.678687 21.228896-20.678687zM0 398.397134c-0.015284-33.685015 27.816119-61.180179 62.601552-61.822089 23.139343-0.412657 44.643343 11.279284 56.304717 30.567164a60.140896 60.140896 0 0 1 0 62.464c-11.661373 19.287881-33.165373 30.979821-56.243582 30.567164-34.770149-0.611343-62.647403-28.07594-62.662687-61.776239z m94.574806-0.030567c0-17.071761-14.290149-30.903403-31.912119-30.903403s-31.896836 13.831642-31.896836 30.903403c0 17.056478 14.274866 30.903403 31.896836 30.903403s31.912119-13.846925 31.912119-30.903403z m1048.163343-138.88191c0-34.143522 28.580299-61.82209 63.808955-61.82209 34.60203 0.886448 62.173612 28.28991 62.173612 61.82209 0 33.516896-27.571582 60.935642-62.173612 61.806806-35.24394 0-63.808955-27.663284-63.808955-61.806806z m92.16 15.680955a30.093373 30.093373 0 0 0 0-31.392478 32.17194 32.17194 0 0 0-28.351045-15.222447c-17.301015 0.443224-31.086806 14.152597-31.086805 30.918686s13.785791 30.475463 31.086805 30.918687c11.615522 0.290388 22.466866-5.532657 28.351045-15.222448zM792.331463 703.808955c6.464955 0 12.685373 2.552358 17.255164 7.045732 4.630925 4.432239 7.244418 10.545672 7.244418 16.903641v96.439403c0 6.388537-2.567642 12.50197-7.152717 17.010627-4.585075 4.508657-10.805493 7.030448-17.270447 7.015164a24.591284 24.591284 0 0 1-17.301015-7.015164 23.781254 23.781254 0 0 1-7.152717-16.995343l-0.076418-96.393552c0-6.373254 2.567642-12.50197 7.152717-16.995344 4.585075-4.508657 10.820776-7.030448 17.301015-7.030447zM559.501373 497.113791a24.637134 24.637134 0 0 1 34.586746 0c9.59809 9.322985 9.59809 24.560716 0 34.00597l-121.642029 119.548179a85.939582 85.939582 0 0 0-26.134926 61.867941c0 23.353313 9.414687 45.300537 26.211343 61.86794a88.981015 88.981015 0 0 0 62.937792 25.676418 89.378388 89.378388 0 0 0 62.968358-25.676418l121.550328-119.548179a24.866388 24.866388 0 0 1 34.647881 0c9.613373 9.322985 9.613373 24.545433 0 33.990686l-121.703165 119.471762c-26.807403 26.486448-62.204179 39.72203-97.53982 39.722029a138.774925 138.774925 0 0 1-97.539821-39.722029A133.226985 133.226985 0 0 1 397.373134 712.474746a133.609075 133.609075 0 0 1 40.470926-95.935045zM884.30806 706.208478c6.464955-0.045851 12.685373 2.445373 17.270447 6.923462l69.37218 68.18006a23.658985 23.658985 0 0 1 0 34.00597 24.637134 24.637134 0 0 1-34.60203 0l-69.372179-68.118925a23.643701 23.643701 0 0 1 0-33.990687c4.73791-4.676776 11.034746-6.999881 17.331582-6.99988z m70.671283-90.142568c5.211701 0 10.209433 2.017433 13.892776 5.639642 3.66806 3.622209 5.731343 8.543522 5.700777 13.663523 0 5.12-2.063284 10.041313-5.746627 13.663522s-8.681075 5.654925-13.892776 5.624358l-78.80215 0.061135a19.562985 19.562985 0 0 1-18.156895-11.890627 19.012776 19.012776 0 0 1 4.340537-21.045493c3.622209-3.66806 8.604657-5.71606 13.816358-5.71606z m-183.402985-309.599522c54.226149-52.01003 142.229015-52.01003 196.455164 0 54.226149 51.872478 54.226149 136.40597 0.076418 188.263164l-122.421492 117.377911c-4.829612 4.585075-11.095881 6.877612-17.423284 6.877612-6.342687 0-12.685373-2.292537-17.453851-6.877612a22.833672 22.833672 0 0 1 0-33.379344l122.345075-117.37791a83.402507 83.402507 0 0 0 26.303045-60.752239 83.75403 83.75403 0 0 0-26.287761-60.752239c-34.953552-33.516896-91.823761-33.516896-126.777314 0l-122.421492 117.377911a25.248478 25.248478 0 0 1-34.816 0 22.833672 22.833672 0 0 1 0-33.379343z m-251.353791 129.849313a24.346746 24.346746 0 0 1 22.589134 14.809792 23.643701 23.643701 0 0 1-5.395104 26.165492 24.178627 24.178627 0 0 1-17.19403 7.137433l-98.13588-0.015284c-13.602388 0-24.576-10.790209-24.377314-24.025791 0-6.373254 2.567642-12.486687 7.152717-16.995343 4.585075-4.508657 10.805493-7.030448 17.285731-7.015164zM608.745075 252.179104c6.480239-0.015284 12.700657 2.506507 17.285731 7.015165 4.585075 4.508657 7.152716 10.62209 7.152716 16.995343l0.061135 96.408836c0 6.373254-2.567642 12.486687-7.152717 16.980059a24.682985 24.682985 0 0 1-34.540895-0.030567 23.383881 23.383881 0 0 1-7.244418-16.903641v-96.439403c0-6.388537 2.567642-12.50197 7.152716-17.010627 4.585075-4.508657 10.805493-7.030448 17.285732-7.015165z m-178.55809 33.012538a24.637134 24.637134 0 0 1 34.586746 0l69.387463 68.042507a23.643701 23.643701 0 0 1 0 33.990687c-4.73791 4.661493-11.034746 6.984597-17.331582 6.984597a24.316179 24.316179 0 0 1-17.270448-6.923463l-69.372179-68.118925a23.643701 23.643701 0 0 1 0-33.990687z" p-id="8771"></path></svg>