<?xml version="1.0" standalone="no"?><!DOCTYPE svg PUBLIC "-//W3C//DTD SVG 1.1//EN" "http://www.w3.org/Graphics/SVG/1.1/DTD/svg11.dtd"><svg t="1656669588074" class="icon" viewBox="0 0 1024 1024" version="1.1" xmlns="http://www.w3.org/2000/svg" p-id="1420" xmlns:xlink="http://www.w3.org/1999/xlink" width="200" height="200"><defs><style type="text/css">@font-face { font-family: feedback-iconfont; src: url("//at.alicdn.com/t/font_1031158_u69w8yhxdu.woff2?t=1630033759944") format("woff2"), url("//at.alicdn.com/t/font_1031158_u69w8yhxdu.woff?t=1630033759944") format("woff"), url("//at.alicdn.com/t/font_1031158_u69w8yhxdu.ttf?t=1630033759944") format("truetype"); }
</style></defs><path d="M0 0m93.090909 0l837.818182 0q93.090909 0 93.090909 93.090909l0 837.818182q0 93.090909-93.090909 93.090909l-837.818182 0q-93.090909 0-93.090909-93.090909l0-837.818182q0-93.090909 93.090909-93.090909Z" fill="#F6AD00" p-id="1421"></path><path d="M247.121455 709.457455l101.783272-149.608728a15.825455 15.825455 0 0 1 24.192-2.385454l67.258182 65.908363 147.595636-231.330909a15.825455 15.825455 0 0 1 27.066182 0.605091l183.389091 317.812364a15.825455 15.825455 0 0 1-13.719273 23.738182H260.224A15.825455 15.825455 0 0 1 247.121455 709.469091z" fill="#FFF7F7" p-id="1422"></path><path d="M357.399273 370.699636m-79.790546 0a79.790545 79.790545 0 1 0 159.581091 0 79.790545 79.790545 0 1 0-159.581091 0Z" fill="#FFFFFF" p-id="1423"></path></svg>